<svg xmlns="http://www.w3.org/2000/svg" xmlns:xlink="http://www.w3.org/1999/xlink" width="300" zoomAndPan="magnify" viewBox="0 0 224.87999 175.5" height="234" preserveAspectRatio="xMidYMid meet" version="1.0"><defs><clipPath id="f2a8a85a9d"><path d="M 2.484375 4 L 222.359375 4 L 222.359375 171.320312 L 2.484375 171.320312 Z M 2.484375 4 " clip-rule="nonzero"/></clipPath></defs><g clip-path="url(#f2a8a85a9d)"><path fill="#000000" d="M 220 110.015625 L 197.179688 107.992188 C 197.296875 106.539062 197.355469 105.0625 197.355469 103.589844 C 197.355469 99.066406 196.785156 94.527344 195.6875 90.125 C 194.644531 86.035156 193.132812 82.003906 191.167969 78.132812 L 191.167969 10.90625 C 191.167969 8.46875 189.910156 6.285156 187.808594 5.085938 C 185.707031 3.867188 183.195312 3.867188 181.09375 5.085938 L 126.199219 36.792969 C 121.660156 36.203125 117.027344 35.910156 112.410156 35.910156 C 107.796875 35.910156 103.160156 36.203125 98.625 36.792969 L 43.789062 5.085938 C 41.6875 3.867188 39.171875 3.867188 37.070312 5.085938 C 34.96875 6.304688 33.710938 8.488281 33.710938 10.90625 L 33.710938 78.132812 C 31.75 82.003906 30.214844 86.035156 29.195312 90.125 C 28.074219 94.527344 27.527344 99.046875 27.527344 103.589844 C 27.527344 105.0625 27.585938 106.515625 27.703125 107.992188 L 4.839844 110.015625 C 3.484375 110.132812 2.484375 111.332031 2.601562 112.691406 C 2.71875 113.96875 3.800781 114.929688 5.058594 114.929688 C 5.136719 114.929688 5.195312 114.929688 5.273438 114.929688 L 28.292969 112.886719 C 28.546875 114.378906 28.859375 115.875 29.253906 117.347656 C 29.449219 118.074219 29.648438 118.785156 29.863281 119.511719 L 8.296875 122.929688 C 6.960938 123.148438 6.039062 124.40625 6.253906 125.761719 C 6.453125 126.980469 7.492188 127.84375 8.691406 127.84375 C 8.828125 127.84375 8.945312 127.824219 9.082031 127.804688 L 31.53125 124.25 C 32.335938 126.253906 33.261719 128.21875 34.28125 130.144531 C 34.578125 130.695312 34.871094 131.226562 35.183594 131.757812 L 14.132812 137.085938 C 12.816406 137.417969 12.007812 138.753906 12.34375 140.074219 C 12.617188 141.191406 13.621094 141.941406 14.738281 141.941406 C 14.9375 141.941406 15.152344 141.921875 15.347656 141.859375 L 37.953125 136.140625 C 39.25 138.027344 40.664062 139.875 42.195312 141.644531 C 45.242188 145.222656 48.757812 148.582031 52.605469 151.628906 C 56.457031 154.675781 60.679688 157.429688 65.175781 159.828125 C 69.714844 162.246094 74.542969 164.328125 79.554688 166 C 89.960938 169.480469 101.039062 171.25 112.429688 171.25 C 123.820312 171.25 134.898438 169.480469 145.308594 166 C 150.316406 164.328125 155.167969 162.246094 159.683594 159.828125 C 164.183594 157.429688 168.40625 154.65625 172.253906 151.628906 C 176.105469 148.582031 179.621094 145.222656 182.664062 141.644531 C 184.175781 139.855469 185.589844 138.027344 186.90625 136.140625 L 209.511719 141.859375 C 209.710938 141.921875 209.925781 141.941406 210.121094 141.941406 C 211.222656 141.941406 212.222656 141.191406 212.519531 140.074219 C 212.851562 138.753906 212.046875 137.417969 210.730469 137.085938 L 189.675781 131.757812 C 189.992188 131.226562 190.285156 130.675781 190.578125 130.144531 C 191.601562 128.21875 192.523438 126.253906 193.328125 124.25 L 215.777344 127.804688 C 215.914062 127.824219 216.035156 127.84375 216.171875 127.84375 C 217.367188 127.84375 218.410156 126.980469 218.605469 125.761719 C 218.824219 124.425781 217.898438 123.148438 216.5625 122.929688 L 195.019531 119.511719 C 195.234375 118.804688 195.429688 118.074219 195.628906 117.347656 C 196 115.875 196.335938 114.378906 196.589844 112.886719 L 219.609375 114.910156 C 219.6875 114.910156 219.746094 114.910156 219.824219 114.910156 C 221.082031 114.910156 222.160156 113.949219 222.277344 112.671875 C 222.359375 111.332031 221.355469 110.132812 220 110.015625 Z M 78.785156 84.070312 C 82.792969 84.070312 86.035156 87.3125 86.035156 91.324219 C 86.035156 95.332031 82.792969 98.574219 78.785156 98.574219 C 74.78125 98.574219 71.539062 95.332031 71.539062 91.324219 C 71.539062 87.3125 74.800781 84.070312 78.785156 84.070312 Z M 110.152344 132.996094 C 107.207031 135.53125 103.316406 136.925781 99.191406 136.925781 C 95.070312 136.925781 91.179688 135.53125 88.234375 132.996094 C 86.761719 131.738281 85.601562 130.242188 84.796875 128.59375 C 83.933594 126.84375 83.5 124.996094 83.5 123.070312 C 83.5 121.710938 84.601562 120.613281 85.957031 120.613281 C 87.3125 120.613281 88.410156 121.710938 88.410156 123.070312 C 88.410156 128.003906 93.242188 131.992188 99.152344 131.992188 C 104.4375 131.992188 108.835938 128.828125 109.738281 124.640625 C 109.230469 124.289062 108.777344 123.796875 108.445312 123.207031 L 104.183594 115.796875 C 102.433594 112.769531 104.613281 108.976562 108.128906 108.976562 L 116.671875 108.976562 C 120.167969 108.976562 122.367188 112.769531 120.621094 115.796875 L 116.359375 123.207031 C 116.003906 123.796875 115.574219 124.289062 115.0625 124.640625 C 115.964844 128.808594 120.367188 131.992188 125.648438 131.992188 C 131.582031 131.992188 136.390625 127.984375 136.390625 123.070312 C 136.390625 121.710938 137.492188 120.613281 138.847656 120.613281 C 140.203125 120.613281 141.300781 121.710938 141.300781 123.070312 C 141.300781 124.996094 140.871094 126.84375 140.003906 128.59375 C 139.199219 130.242188 138.042969 131.738281 136.570312 132.996094 C 133.621094 135.53125 129.734375 136.925781 125.609375 136.925781 C 121.484375 136.925781 117.597656 135.53125 114.648438 132.996094 C 113.785156 132.25 113.039062 131.421875 112.390625 130.539062 C 111.78125 131.421875 111.015625 132.25 110.152344 132.996094 Z M 146.054688 98.574219 C 142.046875 98.574219 138.808594 95.332031 138.808594 91.324219 C 138.808594 87.3125 142.046875 84.070312 146.054688 84.070312 C 150.0625 84.070312 153.300781 87.3125 153.300781 91.324219 C 153.300781 95.332031 150.042969 98.574219 146.054688 98.574219 Z M 146.054688 98.574219 " fill-opacity="1" fill-rule="nonzero"/></g></svg>