<svg width="0" height="0" class="hidden">
  <symbol version="1.1" id="phone" xmlns="http://www.w3.org/2000/svg" xmlns:xlink="http://www.w3.org/1999/xlink" x="0px" y="0px" xml:space="preserve" viewBox="0 0 53.942 53.942">
    <g>
      <path d="M53.364,40.908c-2.008-3.796-8.981-7.912-9.288-8.092c-0.896-0.51-1.831-0.78-2.706-0.78c-1.301,0-2.366,0.596-3.011,1.68
		c-1.02,1.22-2.285,2.646-2.592,2.867c-2.376,1.612-4.236,1.429-6.294-0.629L17.987,24.467c-2.045-2.045-2.233-3.928-0.632-6.291
		c0.224-0.309,1.65-1.575,2.87-2.596c0.778-0.463,1.312-1.151,1.546-1.995c0.311-1.123,0.082-2.444-0.652-3.731
		c-0.173-0.296-4.291-7.27-8.085-9.277c-0.708-0.375-1.506-0.573-2.306-0.573c-1.318,0-2.558,0.514-3.49,1.445L4.7,3.986
		c-4.014,4.013-5.467,8.562-4.321,13.52c0.956,4.132,3.742,8.529,8.282,13.068l14.705,14.705c5.746,5.746,11.224,8.66,16.282,8.66
		c0,0,0,0,0,0c3.721,0,7.188-1.581,10.306-4.698l2.537-2.537C54.033,45.163,54.383,42.833,53.364,40.908z"></path>
      <path d="M29.56,24.926c0.122,0.051,0.252,0.077,0.382,0.077h12c0.552,0,1-0.447,1-1s-0.448-1-1-1h-9.586L47.649,7.71
		c0.391-0.391,0.391-1.023,0-1.414s-1.023-0.391-1.414,0L30.942,21.589v-9.586c0-0.553-0.448-1-1-1s-1,0.447-1,1v12
		c0,0.13,0.027,0.26,0.077,0.382C29.121,24.63,29.316,24.825,29.56,24.926z"></path>
    </g>
    <g></g>
    <g></g>
    <g></g>
    <g></g>
    <g></g>
    <g></g>
    <g></g>
    <g></g>
    <g></g>
    <g></g>
    <g></g>
    <g></g>
    <g></g>
    <g></g>
    <g></g>
  </symbol>
  <symbol version="1.1" id="email" xmlns="http://www.w3.org/2000/svg" xmlns:xlink="http://www.w3.org/1999/xlink" x="0px" y="0px" xml:space="preserve" viewBox="0 0 455 455">
    <g>
      <polygon points="0,40.196 0,285.375 136.195,162.785 	"></polygon>
      <polygon points="372.579,20.014 22.421,20.014 197.5,177.604 	"></polygon>
      <path d="M292.508,193.121c4.592-6.906,10.017-13.312,16.225-19.056c19.47-18.016,44.78-27.938,71.267-27.938
		c5.093,0,10.099,0.372,15,1.076V40.196L258.806,162.785L292.508,193.121z"></path>
      <path d="M380,176.127c-41.355,0-75,33.645-75,75v78.859c0,24.813,20.187,45,45,45s45-20.187,45-45v-78.859h-30v78.859
		c0,8.271-6.729,15-15,15s-15-6.729-15-15v-78.859c0-24.813,20.187-45,45-45s45,20.187,45,45v78.859c0,41.355-33.645,75-75,75
		s-75-33.645-75-75l0.259-86.358l0.103-1.239c0.591-7.115,1.922-14.082,3.901-20.828l-42.878-38.595l-38.885,35l-38.884-35
		L22.421,305.556H245v24.43c0,57.897,47.103,105,105,105s105-47.103,105-105v-78.859C455,209.772,421.355,176.127,380,176.127z"></path>
    </g>
    <g></g>
    <g></g>
    <g></g>
    <g></g>
    <g></g>
    <g></g>
    <g></g>
    <g></g>
    <g></g>
    <g></g>
    <g></g>
    <g></g>
    <g></g>
    <g></g>
    <g></g>
  </symbol>
  <symbol version="1.1" id="cat-toy" xmlns="http://www.w3.org/2000/svg" xmlns:xlink="http://www.w3.org/1999/xlink" x="0px" y="0px" xml:space="preserve" viewBox="0 0 500.421 500.421">
    <path d="M454.803,50.967L406.325,2.489c-3.319-3.319-8.701-3.319-12.021,0c-3.32,3.319-3.319,8.701,0,12.02l48.478,48.477
	c16.955,16.955,16.955,44.543,0,61.499c-8.133,8.133-19.082,12.508-30.776,12.348c-11.711-0.171-22.73-4.833-31.025-13.128
	L317.36,60.084c-23.583-23.584-61.903-23.637-85.42-0.12c-23.583,23.583-23.583,61.956,0,85.539l22.811,22.811
	c-17.814-6.183-36.729-9.412-56.142-9.412c-45.611,0-88.493,17.762-120.745,50.015c-66.579,66.579-66.579,174.91,0,241.489
	c32.252,32.252,75.133,50.014,120.745,50.014c45.611,0,88.493-17.762,120.745-50.014c32.252-32.252,50.014-75.133,50.014-120.745
	c0-45.612-17.762-88.493-50.014-120.745c-0.758-0.758-1.528-1.501-2.298-2.243l-73.096-73.192
	c-16.954-16.955-16.954-44.542,0-61.498c16.89-16.889,44.423-16.835,61.379,0.12l63.621,63.621
	c11.44,11.44,26.639,17.87,42.798,18.105c16.323,0.225,31.634-5.914,43.044-17.325C478.386,112.923,478.386,74.55,454.803,50.967z
	 M282.492,200.752c-20.549,1.744-40.558,6.11-59.625,12.961c-0.4-0.204-0.815-0.387-1.256-0.529
	c-37.099-11.941-75.955-14.473-113.851-7.604c26.197-19.266,57.722-29.678,90.849-29.678
	C228.852,175.903,257.755,184.585,282.492,200.752z M108.876,301.361c-20.993-0.654-41.937,1.504-62.403,6.444
	c1.291-9.065,3.397-18.033,6.303-26.793c0.15-0.044,0.301-0.084,0.45-0.136c29.854-10.44,56.154-14.428,83.397-12.515
	c-0.215,0.213-0.435,0.419-0.648,0.633C125.897,279.072,116.854,289.907,108.876,301.361z M153.547,253.075
	c-0.021-0.003-0.041-0.009-0.061-0.012c-31.063-4.458-60.001-2.211-92.151,7.328c5.619-11.155,12.679-21.763,21.185-31.543
	c36.247-10.54,77.873-12.494,115.29-4.432C182.139,232.218,167.298,241.802,153.547,253.075z M44.975,325.739
	c17.419-4.681,35.243-7.181,53.164-7.465c-16.345,28.348-26.571,59.828-29.991,92.793C51.949,385.112,44.226,355.337,44.975,325.739
	z M83.902,432.047c0.969-57.065,23.633-110.571,64.094-151.032c40.769-40.768,97.503-63.467,155.136-64.11
	c1.419,1.318,2.824,2.656,4.201,4.033c5.856,5.856,11.171,12.107,15.942,18.683c-114.42,8.899-205.967,99.229-216.401,213.47
	c-5.958-4.447-11.637-9.353-16.989-14.705C87.817,436.318,85.828,434.201,83.902,432.047z M344.588,281.129
	c-51.441,6.717-96.881,27.751-131.855,61.152c-36.447,34.807-58.689,80.571-64.6,132.691c-8.64-2.994-16.994-6.753-24.973-11.26
	c5.678-113.292,97.102-203.501,210.512-207.663C338.059,264.073,341.715,272.459,344.588,281.129z M340.248,389.684
	c-12.939-28.395-31.462-54.023-54.293-75.177c11.354-4.877,23.316-8.863,35.807-11.882c11.766,14.99,21.513,31.491,29.034,49.118
	C348.919,364.881,345.366,377.611,340.248,389.684z M351.791,316.34c-3.58-5.973-7.42-11.784-11.516-17.413
	c2.9-0.461,5.827-0.865,8.775-1.225C350.337,303.818,351.254,310.039,351.791,316.34z M263.787,390.095
	c14.795,16.293,27.086,34.799,36.422,54.97c-24.614,21.729-55.08,34.819-87.676,37.727
	C217.298,444.266,236.016,410.34,263.787,390.095z M195.365,483.381c-10.425-0.214-20.679-1.455-30.643-3.685
	c5.005-49.289,26.268-92.151,59.165-124.064c9.929,6.674,19.24,14.111,27.866,22.226
	C220.685,401.488,200.05,440.063,195.365,483.381z M312.996,432.411c-17.504-35.382-43.581-65.728-76.011-88.408
	c9.979-8.104,20.814-15.311,32.41-21.524c26.951,23.451,47.92,53.454,60.704,86.981C325.165,417.557,319.453,425.24,312.996,432.411
	z"></path>
    <g></g>
    <g></g>
    <g></g>
    <g></g>
    <g></g>
    <g></g>
    <g></g>
    <g></g>
    <g></g>
    <g></g>
    <g></g>
    <g></g>
    <g></g>
    <g></g>
    <g></g>
  </symbol>
  <symbol version="1.1" id="menu" xmlns="http://www.w3.org/2000/svg" xmlns:xlink="http://www.w3.org/1999/xlink" x="0px" y="0px" xml:space="preserve" viewBox="0 0 512 512">
    <g>
      <g>
        <path d="M256,0C114.837,0,0,114.837,0,256s114.837,256,256,256s256-114.837,256-256S397.163,0,256,0z M362.667,362.667H149.333
			c-11.797,0-21.333-9.557-21.333-21.333c0-11.776,9.536-21.333,21.333-21.333h213.333c11.797,0,21.333,9.557,21.333,21.333
			C384,353.109,374.464,362.667,362.667,362.667z M362.667,277.333H149.333C137.536,277.333,128,267.776,128,256
			s9.536-21.333,21.333-21.333h213.333c11.797,0,21.333,9.557,21.333,21.333S374.464,277.333,362.667,277.333z M362.667,192H149.333
			C137.536,192,128,182.443,128,170.667s9.536-21.333,21.333-21.333h213.333c11.797,0,21.333,9.557,21.333,21.333
			S374.464,192,362.667,192z"></path>
      </g>
    </g>
    <g></g>
    <g></g>
    <g></g>
    <g></g>
    <g></g>
    <g></g>
    <g></g>
    <g></g>
    <g></g>
    <g></g>
    <g></g>
    <g></g>
    <g></g>
    <g></g>
    <g></g>
  </symbol>
</svg>